<?xml version="1.0" ?><!DOCTYPE svg  PUBLIC '-//W3C//DTD SVG 1.1//EN'  'http://www.w3.org/Graphics/SVG/1.1/DTD/svg11.dtd'><svg enable-background="new 0 0 100 100" height="100px" id="Layer_1" version="1.1" viewBox="0 0 100 100" width="100px" xml:space="preserve" xmlns="http://www.w3.org/2000/svg" xmlns:xlink="http://www.w3.org/1999/xlink"><g><g><circle cx="50" cy="50" fill="#E5E5E5" r="42.105"/></g><g><path d="M68.821,68.634c0,0.895-0.726,1.621-1.62,1.621H41.275c-0.895,0-1.62-0.727-1.62-1.621V31.366    c0-0.895,0.726-1.62,1.62-1.62h25.926c0.895,0,1.62,0.726,1.62,1.62V68.634z" fill="#0464B8"/><path d="M68.821,31.366v4.861H39.655v-4.861c0-0.892,0.729-1.62,1.62-1.62h25.926    C68.093,29.746,68.821,30.475,68.821,31.366z" fill="#0464B8"/><rect fill="#4FD8FF" height="8.912" width="9.722" x="59.1" y="36.228"/><rect fill="#0377D4" height="8.912" width="9.722" x="39.655" y="36.228"/><rect fill="#29A7EB" height="8.911" width="9.722" x="59.1" y="45.14"/><rect fill="#0464B8" height="8.911" width="9.722" x="39.655" y="45.14"/><polygon fill="#1681D7" points="67.413,54.051 59.102,58.782 59.102,54.051   "/><rect fill="#29A7EB" height="8.912" width="9.722" x="39.655" y="54.051"/><path d="M71.683,51.621v15.393c0,1.66-1.247,3.03-2.859,3.216V51.621H71.683z" fill="#042071"/><path d="M39.179,70.124c0.292,0.081,0.591,0.131,0.907,0.131h28.355c1.791,0,3.241-1.45,3.241-3.241V51.621    L39.179,70.124z" fill="#168FDE"/><path d="M68.821,51.621v-2.397c0,0,2.013,1.144,2.469,1.447s0.393,0.696,0.393,0.95H68.821z" fill="#042071"/><path d="M52.773,43.162v1.978H59.1v-8.912h-9.723v4.505h0.966C51.68,40.732,52.773,41.817,52.773,43.162z" fill="#29A7EB"/><rect fill="#0178D4" height="8.911" width="6.326" x="52.773" y="45.14"/><path d="M59.102,54.051v4.731l-4.829,2.755l-1.507-0.858c0.008-0.049,0.008-0.098,0.008-0.146v-6.481H59.102z" fill="#0464B8"/><path d="M56.776,62.963h-6.434h-0.966H37.121c-0.098,0-0.187-0.008-0.275-0.024v4.075    c0,1.791,1.45,3.241,3.24,3.241h28.355c0.316,0,0.616-0.05,0.908-0.131L56.776,62.963z" fill="#29A7EB"/><path d="M50.343,62.963h6.434l-4.011-2.284C52.692,61.958,51.631,62.963,50.343,62.963z" fill="#29A7EB"/><path d="M49.377,58.755v-4.704V45.14v-4.407H37.121c-1.337,0-2.431,1.085-2.431,2.43v17.37h2.155v-8.911    L49.377,58.755z" fill="#035094"/><path d="M52.773,45.14v-1.978c0-1.345-1.094-2.43-2.431-2.43h-0.966v4.407H52.773z" fill="#2186BD"/><rect fill="#0160AA" height="8.911" width="3.396" x="49.377" y="45.14"/><path d="M52.588,60.581l0.178,0.098c0.008-0.049,0.008-0.098,0.008-0.146v-6.481h-3.396v4.704l0.788,0.448    L52.588,60.581z" fill="#035094"/><path d="M49.377,62.963v-4.208l-12.531-7.134v8.911v2.406c0.089,0.017,0.178,0.024,0.275,0.024H49.377z" fill="#2186BD"/><path d="M52.766,60.679l-0.178-0.098l-2.423-1.378l-0.788-0.448v4.208h0.966    C51.631,62.963,52.692,61.958,52.766,60.679z" fill="#2186BD"/><path d="M50.189,41.089v17.823c0,0.098-0.009,0.194-0.024,0.291c-0.146,0.754-0.802,1.329-1.597,1.329H29.935    c-0.899,0-1.62-0.729-1.62-1.62V41.089c0-0.892,0.721-1.621,1.62-1.621h18.634c0.77,0,1.418,0.543,1.58,1.265    C50.174,40.846,50.189,40.967,50.189,41.089z" fill="#1681D7"/><path d="M39.25,43.648c-3.289,0-5.963,2.844-5.963,6.352s2.674,6.352,5.963,6.352c3.298,0,5.963-2.844,5.963-6.352    S42.548,43.648,39.25,43.648z M39.25,54.554c-1.903,0-3.451-2.042-3.451-4.554c0-2.511,1.548-4.545,3.451-4.545    c1.912,0,3.46,2.034,3.46,4.545C42.71,52.512,41.162,54.554,39.25,54.554z" fill="#FFFFFF"/></g></g></svg>